<mxfile host="app.diagrams.net" modified="2024-01-03T20:38:37.537Z" agent="Mozilla/5.0 (Windows NT 10.0; Win64; x64) AppleWebKit/537.36 (KHTML, like Gecko) Chrome/120.0.0.0 Safari/537.36" etag="QYEwpsc3TxiavJ-Gkf3I" version="22.1.16" type="device">
  <diagram id="C5RBs43oDa-KdzZeNtuy" name="Page-1">
    <mxGraphModel dx="894" dy="566" grid="0" gridSize="10" guides="1" tooltips="1" connect="1" arrows="1" fold="1" page="1" pageScale="1" pageWidth="827" pageHeight="1169" background="#000000" math="0" shadow="0">
      <root>
        <mxCell id="WIyWlLk6GJQsqaUBKTNV-0" />
        <mxCell id="WIyWlLk6GJQsqaUBKTNV-1" parent="WIyWlLk6GJQsqaUBKTNV-0" />
        <mxCell id="O4fex1IvYgf_7kbfFFHu-3" value="" style="rounded=0;orthogonalLoop=1;jettySize=auto;html=1;strokeColor=#EEEEEE;fontColor=#FFFFFF;" edge="1" parent="WIyWlLk6GJQsqaUBKTNV-1" source="O4fex1IvYgf_7kbfFFHu-0" target="O4fex1IvYgf_7kbfFFHu-2">
          <mxGeometry relative="1" as="geometry" />
        </mxCell>
        <mxCell id="O4fex1IvYgf_7kbfFFHu-7" style="rounded=0;orthogonalLoop=1;jettySize=auto;html=1;exitX=1;exitY=1;exitDx=0;exitDy=0;strokeColor=#EEEEEE;fontColor=#FFFFFF;" edge="1" parent="WIyWlLk6GJQsqaUBKTNV-1" source="O4fex1IvYgf_7kbfFFHu-0" target="O4fex1IvYgf_7kbfFFHu-6">
          <mxGeometry relative="1" as="geometry" />
        </mxCell>
        <mxCell id="O4fex1IvYgf_7kbfFFHu-8" style="rounded=0;orthogonalLoop=1;jettySize=auto;html=1;exitX=0;exitY=1;exitDx=0;exitDy=0;entryX=0.5;entryY=0;entryDx=0;entryDy=0;strokeColor=#EEEEEE;fontColor=#FFFFFF;" edge="1" parent="WIyWlLk6GJQsqaUBKTNV-1" source="O4fex1IvYgf_7kbfFFHu-0" target="O4fex1IvYgf_7kbfFFHu-4">
          <mxGeometry relative="1" as="geometry" />
        </mxCell>
        <mxCell id="O4fex1IvYgf_7kbfFFHu-9" style="rounded=0;orthogonalLoop=1;jettySize=auto;html=1;exitX=0;exitY=0.5;exitDx=0;exitDy=0;entryX=1;entryY=0.5;entryDx=0;entryDy=0;strokeColor=#EEEEEE;fontColor=#FFFFFF;" edge="1" parent="WIyWlLk6GJQsqaUBKTNV-1" source="O4fex1IvYgf_7kbfFFHu-0" target="O4fex1IvYgf_7kbfFFHu-5">
          <mxGeometry relative="1" as="geometry" />
        </mxCell>
        <mxCell id="O4fex1IvYgf_7kbfFFHu-0" value="日記" style="whiteSpace=wrap;html=1;labelBackgroundColor=none;fillColor=#B1DDF0;strokeColor=#BAC8D3;fontColor=#182E3E;" vertex="1" parent="WIyWlLk6GJQsqaUBKTNV-1">
          <mxGeometry x="340" y="240" width="120" height="60" as="geometry" />
        </mxCell>
        <mxCell id="O4fex1IvYgf_7kbfFFHu-2" value="人物" style="ellipse;whiteSpace=wrap;html=1;fillColor=#B1DDF0;strokeColor=#BAC8D3;fontColor=#182E3E;labelBackgroundColor=none;" vertex="1" parent="WIyWlLk6GJQsqaUBKTNV-1">
          <mxGeometry x="540" y="250" width="80" height="50" as="geometry" />
        </mxCell>
        <mxCell id="O4fex1IvYgf_7kbfFFHu-4" value="時間" style="ellipse;whiteSpace=wrap;html=1;fillColor=#B1DDF0;strokeColor=#BAC8D3;fontColor=#182E3E;labelBackgroundColor=none;" vertex="1" parent="WIyWlLk6GJQsqaUBKTNV-1">
          <mxGeometry x="260" y="360" width="80" height="50" as="geometry" />
        </mxCell>
        <mxCell id="O4fex1IvYgf_7kbfFFHu-5" value="地點" style="ellipse;whiteSpace=wrap;html=1;fillColor=#B1DDF0;strokeColor=#BAC8D3;fontColor=#182E3E;labelBackgroundColor=none;" vertex="1" parent="WIyWlLk6GJQsqaUBKTNV-1">
          <mxGeometry x="180" y="245" width="80" height="50" as="geometry" />
        </mxCell>
        <mxCell id="O4fex1IvYgf_7kbfFFHu-6" value="事件" style="ellipse;whiteSpace=wrap;html=1;fillColor=#B1DDF0;strokeColor=#BAC8D3;fontColor=#182E3E;labelBackgroundColor=none;" vertex="1" parent="WIyWlLk6GJQsqaUBKTNV-1">
          <mxGeometry x="460" y="360" width="80" height="50" as="geometry" />
        </mxCell>
      </root>
    </mxGraphModel>
  </diagram>
</mxfile>
